<svg width="782" height="304" viewBox="0 0 782 304" fill="none" xmlns="http://www.w3.org/2000/svg">
<path d="M151.411 302.787C235.033 302.787 302.822 235.006 302.822 151.393C302.822 67.7811 235.033 0 151.411 0C67.7889 0 0 67.7811 0 151.393C0 235.006 67.7889 302.787 151.411 302.787Z" fill="#5CC8CB"/>
<path d="M280.181 193.84L302.822 155.638C302.822 237.702 219.334 329.67 104.714 295.713L280.181 193.84Z" fill="#7B3582"/>
<path d="M148.58 83.4787C155.184 88.6665 157.637 94.7977 159.901 123.096C203.768 131.585 205.183 203.744 250.465 203.744C268.08 202.906 301.407 207.989 302.822 155.638C307.067 108.946 273.106 56.5956 271.691 62.2552C232.069 84.8935 222.163 104.702 148.58 83.4787Z" fill="#32B2BD"/>
<path d="M89.5137 264.02C89.5138 200.97 64.9828 95.465 129.09 96.2165C153.131 96.9681 185.979 127.572 202.005 149.946L178.297 239.117C163.131 250.77 124.524 271.851 89.5137 264.02Z" fill="#31B4BE"/>
<path d="M165.817 129.241C165.798 139.348 129.502 184.36 174.716 209.514C187.507 198.061 191.593 138.041 190.057 136.846C188.522 135.651 165.836 119.134 165.817 129.241Z" fill="#7B3582"/>
<path d="M162.826 107.084C185.467 148.115 137.355 146.701 179.807 214.616L189.044 137.174C227.251 156.982 213.768 210.371 276.031 200.466C251.974 305.168 124.665 339.217 38.3468 254.323C67.5913 261.398 131.412 273.192 147.26 252.817C167.637 239.234 169.901 233.009 168.486 231.595L124.62 187.732L147.26 119.818L155.751 98.5946L162.826 107.084Z" fill="#CA73B0"/>
<path d="M27.0747 236.652C29.7522 236.652 101.429 280.478 165.473 236.635C123.66 227.771 106.861 200.1 109.72 164.971C111.968 144.564 126.568 130.807 144.03 114.383C152.197 106.703 144.03 90.4949 146.889 82.0637C157.372 89.0897 173.766 109.044 155.466 132.651C136.882 157.944 139.741 159.349 138.311 166.376C136.882 173.402 139.945 226.09 182.832 220.468C162.289 193.766 156.811 175.848 188.995 136.252C223.233 158.847 217.07 199.243 185.608 221.178C187.065 222.739 225.323 233.43 232.47 203.921C234.317 196.3 228.747 187.916 227.031 175.848C225.315 163.779 244.009 146.788 245.438 148.193C245.438 160.218 230.738 167.793 247.893 190.275C263.976 220.362 229.074 252.267 184.896 236.635C164.882 257.714 97.4494 293.322 39.1229 253.977C39.1229 253.977 24.3975 236.652 27.0747 236.652Z" fill="white"/>
<path d="M84.9033 124.51C79.859 106.684 72.2453 99.3424 50.942 90.553C70.7528 87.7233 79.243 79.2339 84.9033 56.5956C87.7334 79.2339 96.2236 87.7233 118.865 90.553C96.2236 99.0424 90.9714 106.883 84.9033 124.51Z" fill="white"/>
<path d="M340.097 50.6667V14.2414H353.732C356.821 14.2414 359.475 14.7444 361.695 15.7505C363.915 16.7218 365.616 18.1441 366.795 20.0174C368.01 21.8561 368.616 24.0936 368.616 26.7301C368.616 29.2972 368.01 31.5174 366.795 33.3907C365.616 35.2294 363.915 36.6516 361.695 37.6577C359.475 38.6637 356.821 39.1667 353.732 39.1667H342.231L343.949 37.3454V50.6667H340.097ZM343.949 37.6577L342.231 35.7844H353.628C357.271 35.7844 360.03 35.0038 361.903 33.4427C363.811 31.847 364.765 29.6095 364.765 26.7301C364.765 23.8161 363.811 21.5611 361.903 19.9654C360.03 18.3697 357.271 17.5717 353.628 17.5717H342.231L343.949 15.7505V37.6577ZM392.7 50.9789C389.993 50.9789 387.391 50.5452 384.893 49.678C382.431 48.776 380.522 47.6312 379.169 46.2436L380.678 43.2776C381.963 44.5264 383.68 45.5845 385.83 46.4517C388.016 47.2843 390.306 47.7006 392.7 47.7006C394.989 47.7006 396.847 47.423 398.268 46.868C399.725 46.2783 400.784 45.4977 401.443 44.5264C402.137 43.5551 402.483 42.4796 402.483 41.3002C402.483 39.8778 402.067 38.733 401.234 37.8658C400.437 36.9986 399.379 36.3221 398.06 35.8364C396.742 35.316 395.285 34.8651 393.688 34.4835C392.093 34.1018 390.497 33.7029 388.901 33.2866C387.305 32.8357 385.83 32.2459 384.477 31.5174C383.159 30.7889 382.083 29.8349 381.25 28.6554C380.453 27.4412 380.053 25.8629 380.053 23.9201C380.053 22.1163 380.522 20.4684 381.458 18.9767C382.431 17.4503 383.904 16.2362 385.882 15.3342C387.86 14.3976 390.393 13.9292 393.48 13.9292C395.528 13.9292 397.557 14.2241 399.569 14.8138C401.582 15.3688 403.316 16.1494 404.773 17.1555L403.472 20.2256C401.911 19.1849 400.246 18.4217 398.476 17.936C396.742 17.4503 395.059 17.2075 393.428 17.2075C391.242 17.2075 389.439 17.5023 388.016 18.0921C386.594 18.6819 385.536 19.4797 384.841 20.4858C384.182 21.4571 383.852 22.5672 383.852 23.8161C383.852 25.2384 384.252 26.3832 385.049 27.2505C385.882 28.1177 386.959 28.7941 388.276 29.2799C389.629 29.7656 391.104 30.1991 392.7 30.5808C394.296 30.9624 395.874 31.3787 397.435 31.8296C399.032 32.2806 400.489 32.8703 401.807 33.5988C403.16 34.2927 404.236 35.2294 405.034 36.4088C405.866 37.5882 406.283 39.1321 406.283 41.04C406.283 42.8092 405.798 44.457 404.825 45.9834C403.854 47.4751 402.363 48.6893 400.35 49.6259C398.372 50.528 395.822 50.9789 392.7 50.9789ZM419.878 50.6667V14.2414H423.729V50.6667H419.878ZM456.607 50.9789C453.867 50.9789 451.333 50.528 449.009 49.6259C446.685 48.6893 444.672 47.3884 442.972 45.7232C441.273 44.0581 439.936 42.0981 438.965 39.8432C438.028 37.5882 437.56 35.1253 437.56 32.4541C437.56 29.7828 438.028 27.3199 438.965 25.0649C439.936 22.81 441.273 20.85 442.972 19.1849C444.707 17.5197 446.737 16.2362 449.061 15.3342C451.385 14.3976 453.919 13.9292 456.659 13.9292C459.296 13.9292 461.777 14.3802 464.101 15.2822C466.425 16.1494 468.386 17.4677 469.982 19.2369L467.536 21.6826C466.045 20.1562 464.396 19.0634 462.592 18.4043C460.788 17.7105 458.845 17.3636 456.763 17.3636C454.578 17.3636 452.548 17.7452 450.674 18.5084C448.801 19.2369 447.17 20.295 445.782 21.6826C444.395 23.0355 443.302 24.6313 442.504 26.4699C441.741 28.2738 441.359 30.2685 441.359 32.4541C441.359 34.6396 441.741 36.6516 442.504 38.4902C443.302 40.2941 444.395 41.89 445.782 43.2776C447.17 44.6305 448.801 45.6886 450.674 46.4517C452.548 47.1803 454.578 47.5445 456.763 47.5445C458.845 47.5445 460.788 47.1976 462.592 46.5038C464.396 45.8099 466.045 44.6999 467.536 43.1735L469.982 45.6192C468.386 47.3884 466.425 48.7239 464.101 49.6259C461.777 50.528 459.279 50.9789 456.607 50.9789ZM498.559 50.9789C495.818 50.9789 493.268 50.528 490.908 49.6259C488.584 48.6893 486.555 47.3884 484.819 45.7232C483.12 44.0234 481.783 42.0633 480.812 39.8432C479.875 37.5882 479.407 35.1253 479.407 32.4541C479.407 29.7828 479.875 27.3371 480.812 25.117C481.783 22.862 483.12 20.9021 484.819 19.2369C486.555 17.5371 488.584 16.2362 490.908 15.3342C493.232 14.3976 495.783 13.9292 498.559 13.9292C501.299 13.9292 503.833 14.3976 506.157 15.3342C508.481 16.2362 510.494 17.5197 512.194 19.1849C513.929 20.85 515.264 22.81 516.201 25.0649C517.172 27.3199 517.658 29.7828 517.658 32.4541C517.658 35.1253 517.172 37.5882 516.201 39.8432C515.264 42.0981 513.929 44.0581 512.194 45.7232C510.494 47.3884 508.481 48.6893 506.157 49.6259C503.833 50.528 501.299 50.9789 498.559 50.9789ZM498.559 47.5445C500.744 47.5445 502.756 47.1803 504.595 46.4517C506.469 45.6886 508.082 44.6305 509.435 43.2776C510.823 41.89 511.899 40.2941 512.662 38.4902C513.425 36.6516 513.807 34.6396 513.807 32.4541C513.807 30.2685 513.425 28.2738 512.662 26.4699C511.899 24.6313 510.823 23.0355 509.435 21.6826C508.082 20.295 506.469 19.2369 504.595 18.5084C502.756 17.7452 500.744 17.3636 498.559 17.3636C496.373 17.3636 494.343 17.7452 492.47 18.5084C490.596 19.2369 488.965 20.295 487.578 21.6826C486.225 23.0355 485.15 24.6313 484.351 26.4699C483.588 28.2738 483.206 30.2685 483.206 32.4541C483.206 34.6049 483.588 36.5995 484.351 38.4382C485.15 40.2769 486.225 41.89 487.578 43.2776C488.965 44.6305 490.596 45.6886 492.47 46.4517C494.343 47.1803 496.373 47.5445 498.559 47.5445ZM495.176 11.2754L502.306 4.82292H507.25L498.819 11.2754H495.176ZM531.494 50.6667V14.2414H535.345V47.3364H555.746V50.6667H531.494ZM582.557 50.9789C579.817 50.9789 577.267 50.528 574.907 49.6259C572.583 48.6893 570.553 47.3884 568.818 45.7232C567.118 44.0234 565.783 42.0633 564.811 39.8432C563.874 37.5882 563.406 35.1253 563.406 32.4541C563.406 29.7828 563.874 27.3371 564.811 25.117C565.783 22.862 567.118 20.9021 568.818 19.2369C570.553 17.5371 572.583 16.2362 574.907 15.3342C577.232 14.3976 579.782 13.9292 582.557 13.9292C585.299 13.9292 587.831 14.3976 590.155 15.3342C592.481 16.2362 594.493 17.5197 596.192 19.1849C597.927 20.85 599.263 22.81 600.199 25.0649C601.172 27.3199 601.657 29.7828 601.657 32.4541C601.657 35.1253 601.172 37.5882 600.199 39.8432C599.263 42.0981 597.927 44.0581 596.192 45.7232C594.493 47.3884 592.481 48.6893 590.155 49.6259C587.831 50.528 585.299 50.9789 582.557 50.9789ZM582.557 47.5445C584.743 47.5445 586.756 47.1803 588.594 46.4517C590.468 45.6886 592.081 44.6305 593.434 43.2776C594.823 41.89 595.898 40.2941 596.661 38.4902C597.425 36.6516 597.805 34.6396 597.805 32.4541C597.805 30.2685 597.425 28.2738 596.661 26.4699C595.898 24.6313 594.823 23.0355 593.434 21.6826C592.081 20.295 590.468 19.2369 588.594 18.5084C586.756 17.7452 584.743 17.3636 582.557 17.3636C580.371 17.3636 578.342 17.7452 576.468 18.5084C574.595 19.2369 572.965 20.295 571.576 21.6826C570.223 23.0355 569.148 24.6313 568.35 26.4699C567.587 28.2738 567.205 30.2685 567.205 32.4541C567.205 34.6049 567.587 36.5995 568.35 38.4382C569.148 40.2769 570.223 41.89 571.576 43.2776C572.965 44.6305 574.595 45.6886 576.468 46.4517C578.342 47.1803 580.371 47.5445 582.557 47.5445ZM631.47 50.9789C628.695 50.9789 626.127 50.528 623.768 49.6259C621.444 48.6893 619.414 47.3884 617.679 45.7232C615.979 44.0581 614.644 42.0981 613.671 39.8432C612.735 37.5882 612.266 35.1253 612.266 32.4541C612.266 29.7828 612.735 27.3199 613.671 25.0649C614.644 22.81 615.997 20.85 617.731 19.1849C619.466 17.5197 621.496 16.2362 623.82 15.3342C626.179 14.3976 628.747 13.9292 631.522 13.9292C634.298 13.9292 636.83 14.3629 639.12 15.2301C641.445 16.0973 643.423 17.4156 645.053 19.1849L642.659 21.6306C641.133 20.1041 639.45 19.0114 637.611 18.3523C635.773 17.6932 633.795 17.3636 631.678 17.3636C629.424 17.3636 627.342 17.7452 625.433 18.5084C623.559 19.2369 621.912 20.295 620.489 21.6826C619.102 23.0355 618.009 24.6313 617.21 26.4699C616.447 28.2738 616.065 30.2685 616.065 32.4541C616.065 34.6049 616.447 36.5995 617.21 38.4382C618.009 40.2769 619.102 41.89 620.489 43.2776C621.912 44.6305 623.559 45.6886 625.433 46.4517C627.342 47.1803 629.406 47.5445 631.626 47.5445C633.708 47.5445 635.669 47.2323 637.507 46.6079C639.38 45.9834 641.098 44.9253 642.659 43.4337L644.845 46.3477C643.111 47.8741 641.081 49.0362 638.756 49.8341C636.432 50.5972 634.003 50.9789 631.47 50.9789ZM641.15 45.8794V32.4541H644.845V46.3477L641.15 45.8794ZM655.12 50.6667L671.774 14.2414H675.573L692.226 50.6667H688.167L672.866 16.479H674.428L659.127 50.6667H655.12ZM661.677 40.9359L662.822 37.8138H684.004L685.148 40.9359H661.677Z" fill="#7B3582"/>
<path d="M332.165 165.694L371.854 77.5063H387.981L427.796 165.694H410.661L376.516 86.1991H383.068L349.049 165.694H332.165ZM350.435 145.285L354.844 132.434H402.471L406.881 145.285H350.435ZM475.678 97.6634C481.053 97.6634 485.841 98.7133 490.041 100.813C494.325 102.913 497.685 106.146 500.121 110.514C502.558 114.797 503.775 120.34 503.775 127.143V165.694H488.025V129.159C488.025 123.196 486.597 118.744 483.742 115.805C480.97 112.865 477.064 111.395 472.024 111.395C468.328 111.395 465.052 112.151 462.196 113.663C459.341 115.175 457.114 117.443 455.518 120.466C454.006 123.406 453.25 127.143 453.25 131.679V165.694H437.501V98.4193H452.494V116.561L449.849 111.018C452.2 106.734 455.602 103.459 460.054 101.191C464.59 98.8393 469.798 97.6634 475.678 97.6634ZM565.208 165.694V152.088L564.326 149.19V125.379C564.326 120.76 562.94 117.191 560.168 114.671C557.396 112.067 553.196 110.766 547.568 110.766C543.788 110.766 540.05 111.353 536.355 112.529C532.742 113.705 529.677 115.343 527.157 117.443L520.983 105.978C524.595 103.207 528.878 101.149 533.835 99.8051C538.875 98.3773 544.082 97.6634 549.458 97.6634C559.201 97.6634 566.72 100.015 572.012 104.718C577.387 109.338 580.075 116.519 580.075 126.261V165.694H565.208ZM544.04 166.576C539.001 166.576 534.591 165.736 530.811 164.056C527.031 162.292 524.091 159.899 521.991 156.875C519.975 153.768 518.967 150.281 518.967 146.418C518.967 142.639 519.849 139.237 521.613 136.214C523.461 133.19 526.442 130.797 530.559 129.033C534.674 127.269 540.135 126.387 546.938 126.387H566.468V136.844H548.072C542.696 136.844 539.084 137.726 537.237 139.489C535.388 141.17 534.465 143.269 534.465 145.789C534.465 148.644 535.599 150.911 537.867 152.592C540.135 154.272 543.285 155.111 547.316 155.111C551.18 155.111 554.624 154.229 557.648 152.466C560.756 150.702 562.981 148.099 564.326 144.655L566.972 154.103C565.46 158.051 562.729 161.116 558.782 163.3C554.917 165.484 550.003 166.576 544.04 166.576Z" fill="#7B3582"/>
<path d="M333.683 272.505V184.317H375.009C385.593 184.317 393.657 186.416 399.201 190.616C404.745 194.731 407.517 200.274 407.517 207.246C407.517 211.95 406.425 215.981 404.241 219.34C402.056 222.616 399.117 225.178 395.421 227.025C391.809 228.789 387.861 229.671 383.577 229.671L385.845 225.135C390.801 225.135 395.252 226.06 399.201 227.907C403.149 229.671 406.257 232.274 408.525 235.718C410.876 239.162 412.052 243.445 412.052 248.568C412.052 256.127 409.155 262.006 403.359 266.205C397.563 270.405 388.953 272.505 377.529 272.505H333.683ZM350.062 259.654H376.521C382.653 259.654 387.357 258.646 390.633 256.631C393.909 254.615 395.547 251.382 395.547 246.93C395.547 242.563 393.909 239.371 390.633 237.356C387.357 235.256 382.653 234.206 376.521 234.206H348.802V221.482H373.246C378.958 221.482 383.325 220.474 386.349 218.458C389.457 216.443 391.011 213.419 391.011 209.388C391.011 205.273 389.457 202.207 386.349 200.191C383.325 198.175 378.958 197.167 373.246 197.167H350.062V259.654ZM458.26 273.386C451.373 273.386 445.242 271.917 439.865 268.977C434.489 265.953 430.248 261.838 427.139 256.631C424.032 251.423 422.477 245.502 422.477 238.867C422.477 232.148 424.032 226.227 427.139 221.104C430.248 215.896 434.489 211.824 439.865 208.884C445.242 205.944 451.373 204.474 458.26 204.474C465.233 204.474 471.406 205.944 476.782 208.884C482.242 211.824 486.484 215.855 489.507 220.978C492.616 226.101 494.169 232.064 494.169 238.867C494.169 245.502 492.616 251.423 489.507 256.631C486.484 261.838 482.242 265.953 476.782 268.977C471.406 271.917 465.233 273.386 458.26 273.386ZM458.26 259.906C462.125 259.906 465.568 259.067 468.592 257.387C471.616 255.706 473.969 253.272 475.648 250.08C477.412 246.888 478.294 243.151 478.294 238.867C478.294 234.5 477.412 230.762 475.648 227.655C473.969 224.463 471.616 222.028 468.592 220.348C465.568 218.668 462.166 217.828 458.386 217.828C454.523 217.828 451.079 218.668 448.055 220.348C445.116 222.028 442.763 224.463 440.999 227.655C439.235 230.762 438.353 234.5 438.353 238.867C438.353 243.151 439.235 246.888 440.999 250.08C442.763 253.272 445.116 255.706 448.055 257.387C451.079 259.067 454.48 259.906 458.26 259.906ZM509.23 272.505V205.23H524.224V223.749L522.46 218.332C524.476 213.797 527.625 210.353 531.909 208.002C536.277 205.651 541.695 204.474 548.163 204.474V219.466C547.49 219.298 546.861 219.214 546.273 219.214C545.685 219.131 545.097 219.088 544.509 219.088C538.545 219.088 533.799 220.852 530.271 224.379C526.743 227.823 524.98 232.989 524.98 239.875V272.505H509.23ZM591.4 297.827C585.184 297.827 579.094 296.987 573.131 295.307C567.25 293.712 562.421 291.359 558.641 288.252L565.697 276.41C568.636 278.846 572.332 280.777 576.785 282.205C581.321 283.717 585.897 284.473 590.518 284.473C597.91 284.473 603.327 282.751 606.772 279.308C610.215 275.948 611.938 270.867 611.938 264.064V252.095L613.198 236.852L612.694 221.608V205.23H627.687V262.3C627.687 274.478 624.578 283.422 618.363 289.134C612.147 294.929 603.159 297.827 591.4 297.827ZM589.384 269.481C583 269.481 577.204 268.138 571.997 265.45C566.872 262.678 562.799 258.856 559.775 253.985C556.835 249.114 555.365 243.403 555.365 236.852C555.365 230.384 556.835 224.715 559.775 219.844C562.799 214.973 566.872 211.194 571.997 208.506C577.204 205.818 583 204.474 589.384 204.474C595.095 204.474 600.22 205.608 604.756 207.876C609.292 210.143 612.903 213.671 615.592 218.458C618.364 223.246 619.749 229.376 619.749 236.852C619.749 244.327 618.364 250.5 615.592 255.371C612.903 260.158 609.292 263.728 604.756 266.079C600.22 268.347 595.095 269.481 589.384 269.481ZM591.778 256.127C595.725 256.127 599.253 255.329 602.362 253.733C605.469 252.053 607.863 249.785 609.544 246.93C611.308 243.99 612.19 240.631 612.19 236.852C612.19 233.072 611.308 229.754 609.544 226.899C607.863 223.959 605.469 221.734 602.362 220.222C599.253 218.627 595.725 217.828 591.778 217.828C587.83 217.828 584.26 218.627 581.069 220.222C577.96 221.734 575.525 223.959 573.761 226.899C572.08 229.754 571.241 233.072 571.241 236.852C571.241 240.631 572.08 243.99 573.761 246.93C575.525 249.785 577.96 252.053 581.069 253.733C584.26 255.329 587.83 256.127 591.778 256.127ZM680.017 273.386C672.542 273.386 665.99 271.917 660.361 268.977C654.818 265.953 650.493 261.838 647.384 256.631C644.36 251.423 642.848 245.502 642.848 238.867C642.848 232.148 644.319 226.227 647.258 221.104C650.282 215.896 654.399 211.824 659.605 208.884C664.897 205.944 670.904 204.474 677.623 204.474C684.175 204.474 690.013 205.902 695.136 208.758C700.261 211.613 704.293 215.644 707.232 220.852C710.172 226.06 711.642 232.19 711.642 239.245C711.642 239.918 711.601 240.674 711.516 241.513C711.516 242.352 711.475 243.151 711.39 243.907H655.322V233.45H703.074L696.9 236.726C696.985 232.863 696.187 229.461 694.506 226.521C692.827 223.581 690.517 221.272 687.577 219.592C684.721 217.912 681.403 217.072 677.623 217.072C673.76 217.072 670.358 217.912 667.417 219.592C664.562 221.272 662.294 223.623 660.613 226.647C659.018 229.587 658.22 233.072 658.22 237.104V239.623C658.22 243.655 659.144 247.225 660.991 250.332C662.84 253.439 665.444 255.832 668.803 257.513C672.164 259.193 676.027 260.032 680.395 260.032C684.175 260.032 687.577 259.445 690.601 258.269C693.625 257.092 696.313 255.245 698.664 252.725L707.106 262.426C704.082 265.953 700.261 268.683 695.64 270.615C691.105 272.462 685.898 273.386 680.017 273.386ZM747.561 273.386C741.933 273.386 736.515 272.673 731.307 271.245C726.184 269.733 722.109 267.927 719.085 265.827L725.133 253.859C728.157 255.791 731.769 257.387 735.969 258.646C740.169 259.906 744.368 260.536 748.569 260.536C753.525 260.536 757.094 259.864 759.278 258.52C761.546 257.177 762.68 255.371 762.68 253.103C762.68 251.256 761.924 249.87 760.412 248.946C758.9 247.938 756.927 247.182 754.49 246.678C752.054 246.174 749.325 245.713 746.301 245.292C743.36 244.872 740.379 244.327 737.355 243.655C734.414 242.899 731.727 241.848 729.291 240.505C726.855 239.077 724.881 237.187 723.369 234.836C721.857 232.485 721.101 229.376 721.101 225.513C721.101 221.23 722.319 217.534 724.755 214.427C727.192 211.235 730.594 208.8 734.961 207.12C739.413 205.356 744.663 204.474 750.711 204.474C755.246 204.474 759.825 204.978 764.444 205.986C769.064 206.994 772.886 208.422 775.91 210.269L769.862 222.238C766.67 220.306 763.436 219.005 760.16 218.332C756.968 217.576 753.777 217.198 750.584 217.198C745.797 217.198 742.226 217.912 739.875 219.34C737.607 220.768 736.473 222.573 736.473 224.757C736.473 226.773 737.229 228.285 738.741 229.293C740.253 230.301 742.226 231.099 744.663 231.686C747.099 232.274 749.786 232.778 752.726 233.198C755.75 233.534 758.732 234.08 761.672 234.836C764.613 235.592 767.3 236.642 769.736 237.985C772.256 239.245 774.272 241.051 775.784 243.403C777.296 245.754 778.052 248.82 778.052 252.599C778.052 256.799 776.792 260.453 774.272 263.56C771.835 266.667 768.35 269.103 763.814 270.867C759.278 272.547 753.86 273.386 747.561 273.386Z" fill="#7B3582"/>
</svg>
