<svg width="304" height="303" viewBox="0 0 304 303" fill="none" xmlns="http://www.w3.org/2000/svg">
<path d="M151.411 302.787C235.033 302.787 302.822 235.006 302.822 151.393C302.822 67.7811 235.033 0 151.411 0C67.7889 0 0 67.7811 0 151.393C0 235.006 67.7889 302.787 151.411 302.787Z" fill="#5CC8CB"/>
<path d="M280.181 193.84L302.822 155.638C302.822 237.702 219.334 329.67 104.714 295.713L280.181 193.84Z" fill="#7B3582"/>
<path d="M148.58 83.4787C155.184 88.6665 157.637 94.7977 159.901 123.096C203.768 131.585 205.183 203.744 250.465 203.744C268.08 202.906 301.407 207.989 302.822 155.638C307.067 108.946 273.106 56.5956 271.691 62.2552C232.069 84.8935 222.163 104.702 148.58 83.4787Z" fill="#32B2BD"/>
<path d="M89.5137 264.02C89.5138 200.97 64.9828 95.465 129.09 96.2165C153.131 96.9681 185.979 127.572 202.005 149.946L178.297 239.117C163.131 250.77 124.524 271.851 89.5137 264.02Z" fill="#31B4BE"/>
<path d="M165.817 129.241C165.798 139.348 129.502 184.36 174.716 209.514C187.507 198.061 191.593 138.041 190.057 136.846C188.522 135.651 165.836 119.134 165.817 129.241Z" fill="#7B3582"/>
<path d="M162.826 107.084C185.467 148.115 137.355 146.701 179.807 214.616L189.044 137.174C227.251 156.982 213.768 210.371 276.031 200.466C251.974 305.168 124.665 339.217 38.3468 254.323C67.5913 261.398 131.412 273.192 147.26 252.817C167.637 239.234 169.901 233.009 168.486 231.595L124.62 187.732L147.26 119.818L155.751 98.5946L162.826 107.084Z" fill="#CA73B0"/>
<path d="M27.0747 236.652C29.7522 236.652 101.429 280.478 165.473 236.635C123.66 227.771 106.861 200.1 109.72 164.971C111.968 144.564 126.568 130.807 144.03 114.383C152.197 106.703 144.03 90.4949 146.889 82.0637C157.372 89.0897 173.766 109.044 155.466 132.651C136.882 157.944 139.741 159.349 138.311 166.376C136.882 173.402 139.945 226.09 182.832 220.468C162.289 193.766 156.811 175.848 188.995 136.252C223.233 158.847 217.07 199.243 185.608 221.178C187.065 222.739 225.323 233.43 232.47 203.921C234.317 196.3 228.747 187.916 227.031 175.848C225.315 163.779 244.009 146.788 245.438 148.193C245.438 160.218 230.738 167.793 247.893 190.275C263.976 220.362 229.074 252.267 184.896 236.635C164.882 257.714 97.4494 293.322 39.1229 253.977C39.1229 253.977 24.3975 236.652 27.0747 236.652Z" fill="white"/>
<path d="M84.9033 124.51C79.859 106.684 72.2453 99.3424 50.942 90.553C70.7528 87.7233 79.243 79.2339 84.9033 56.5956C87.7334 79.2339 96.2236 87.7233 118.865 90.553C96.2236 99.0424 90.9714 106.883 84.9033 124.51Z" fill="white"/>
</svg>
