<svg width="571" height="222" viewBox="0 0 571 222" fill="none" xmlns="http://www.w3.org/2000/svg">
<circle cx="110.557" cy="110.557" r="110.557" fill="#5CC8CB"/>
<path d="M204.582 141.554L221.114 113.657C221.114 173.585 160.153 240.746 76.46 215.948L204.582 141.554Z" fill="#A25BA9"/>
<path d="M108.49 60.9614C113.312 64.7499 115.103 69.2273 116.756 89.8921C148.787 96.0916 149.82 148.787 182.884 148.787C195.746 148.175 220.081 151.887 221.114 113.657C224.214 79.5596 199.416 41.3297 198.383 45.4627C169.452 61.9946 162.219 76.46 108.49 60.9614Z" fill="#32B2BD"/>
<path d="M65.3609 192.804C65.3611 146.761 47.4491 69.7146 94.2591 70.2634C111.813 70.8122 135.798 93.1612 147.5 109.5L130.189 174.618C119.115 183.128 90.9248 198.523 65.3609 192.804Z" fill="#31B4BE"/>
<path d="M123.989 95.0584C123.977 102.291 101.5 134.5 129.5 152.5C137.421 144.305 139.95 101.355 139 100.5C138.05 99.6449 124.001 87.8257 123.989 95.0584Z" fill="#A05DAA"/>
<path d="M119.856 78.5265C136.388 108.491 101.258 107.457 132.255 157.053L139 100.5C166.898 114.965 157.053 153.953 202.516 146.721C184.95 223.18 91.9919 248.045 28.964 186.05C50.3177 191.216 96.9182 199.829 108.49 184.95C123.369 175.031 125.022 170.485 123.989 169.452L91.9586 137.421L108.49 87.8257L114.69 72.327L119.856 78.5265Z" fill="#CA73B0"/>
<path d="M19.7695 172.818C21.7244 172.818 74.0612 204.823 120.825 172.806C90.2938 166.333 78.0278 146.126 80.1155 120.472C81.7567 105.57 92.4171 95.5232 105.168 83.5299C111.131 77.9211 105.168 66.0851 107.255 59.9281C114.91 65.0589 126.88 79.6305 113.518 96.87C99.9485 115.341 102.036 116.367 100.992 121.498C99.9485 126.629 102.185 165.105 133.5 161C118.5 141.5 114.5 128.415 138 99.5C163 116 158.5 145.5 135.527 161.518C136.591 162.658 164.526 170.465 169.745 148.916C171.093 143.351 167.026 137.228 165.773 128.415C164.52 119.602 178.17 107.194 179.214 108.22C179.214 117.001 168.48 122.533 181.006 138.951C192.75 160.922 167.265 184.221 135.007 172.806C120.393 188.199 71.1556 214.202 28.5667 185.47C28.5667 185.47 17.8145 172.818 19.7695 172.818Z" fill="white"/>
<path d="M61.9946 90.9254C58.3113 77.9076 52.7519 72.5461 37.1967 66.1275C51.6621 64.0611 57.8616 57.8616 61.9946 41.3297C64.0611 57.8616 70.2605 64.0611 86.7924 66.1275C70.2605 72.327 66.4253 78.0527 61.9946 90.9254Z" fill="white"/>
<path d="M248.332 37V10.4H258.288C260.543 10.4 262.481 10.7673 264.102 11.502C265.723 12.2113 266.965 13.25 267.826 14.618C268.713 15.9607 269.156 17.5947 269.156 19.52C269.156 21.3947 268.713 23.016 267.826 24.384C266.965 25.7267 265.723 26.7653 264.102 27.5C262.481 28.2347 260.543 28.602 258.288 28.602H249.89L251.144 27.272V37H248.332ZM251.144 27.5L249.89 26.132H258.212C260.872 26.132 262.886 25.562 264.254 24.422C265.647 23.2567 266.344 21.6227 266.344 19.52C266.344 17.392 265.647 15.7453 264.254 14.58C262.886 13.4147 260.872 12.832 258.212 12.832H249.89L251.144 11.502V27.5ZM286.741 37.228C284.765 37.228 282.865 36.9113 281.041 36.278C279.243 35.6193 277.849 34.7833 276.861 33.77L277.963 31.604C278.901 32.516 280.155 33.2887 281.725 33.922C283.321 34.53 284.993 34.834 286.741 34.834C288.413 34.834 289.769 34.6313 290.807 34.226C291.871 33.7953 292.644 33.2253 293.125 32.516C293.632 31.8067 293.885 31.0213 293.885 30.16C293.885 29.1213 293.581 28.2853 292.973 27.652C292.391 27.0187 291.618 26.5247 290.655 26.17C289.693 25.79 288.629 25.4607 287.463 25.182C286.298 24.9033 285.133 24.612 283.967 24.308C282.802 23.9787 281.725 23.548 280.737 23.016C279.775 22.484 278.989 21.7873 278.381 20.926C277.799 20.0393 277.507 18.8867 277.507 17.468C277.507 16.1507 277.849 14.9473 278.533 13.858C279.243 12.7433 280.319 11.8567 281.763 11.198C283.207 10.514 285.057 10.172 287.311 10.172C288.806 10.172 290.288 10.3873 291.757 10.818C293.227 11.2233 294.493 11.7933 295.557 12.528L294.607 14.77C293.467 14.01 292.251 13.4527 290.959 13.098C289.693 12.7433 288.464 12.566 287.273 12.566C285.677 12.566 284.36 12.7813 283.321 13.212C282.283 13.6427 281.51 14.2253 281.003 14.96C280.522 15.6693 280.281 16.48 280.281 17.392C280.281 18.4307 280.573 19.2667 281.155 19.9C281.763 20.5333 282.549 21.0273 283.511 21.382C284.499 21.7367 285.576 22.0533 286.741 22.332C287.907 22.6107 289.059 22.9147 290.199 23.244C291.365 23.5733 292.429 24.004 293.391 24.536C294.379 25.0427 295.165 25.7267 295.747 26.588C296.355 27.4493 296.659 28.5767 296.659 29.97C296.659 31.262 296.305 32.4653 295.595 33.58C294.886 34.6693 293.797 35.556 292.327 36.24C290.883 36.8987 289.021 37.228 286.741 37.228ZM306.586 37V10.4H309.398V37H306.586ZM333.405 37.228C331.404 37.228 329.554 36.8987 327.857 36.24C326.16 35.556 324.69 34.606 323.449 33.39C322.208 32.174 321.232 30.7427 320.523 29.096C319.839 27.4493 319.497 25.6507 319.497 23.7C319.497 21.7493 319.839 19.9507 320.523 18.304C321.232 16.6573 322.208 15.226 323.449 14.01C324.716 12.794 326.198 11.8567 327.895 11.198C329.592 10.514 331.442 10.172 333.443 10.172C335.368 10.172 337.18 10.5013 338.877 11.16C340.574 11.7933 342.006 12.756 343.171 14.048L341.385 15.834C340.296 14.7193 339.092 13.9213 337.775 13.44C336.458 12.9333 335.039 12.68 333.519 12.68C331.923 12.68 330.441 12.9587 329.073 13.516C327.705 14.048 326.514 14.8207 325.501 15.834C324.488 16.822 323.69 17.9873 323.107 19.33C322.55 20.6473 322.271 22.104 322.271 23.7C322.271 25.296 322.55 26.7653 323.107 28.108C323.69 29.4253 324.488 30.5907 325.501 31.604C326.514 32.592 327.705 33.3647 329.073 33.922C330.441 34.454 331.923 34.72 333.519 34.72C335.039 34.72 336.458 34.4667 337.775 33.96C339.092 33.4533 340.296 32.6427 341.385 31.528L343.171 33.314C342.006 34.606 340.574 35.5813 338.877 36.24C337.18 36.8987 335.356 37.228 333.405 37.228ZM364.037 37.228C362.036 37.228 360.174 36.8987 358.451 36.24C356.754 35.556 355.272 34.606 354.005 33.39C352.764 32.1487 351.788 30.7173 351.079 29.096C350.395 27.4493 350.053 25.6507 350.053 23.7C350.053 21.7493 350.395 19.9633 351.079 18.342C351.788 16.6953 352.764 15.264 354.005 14.048C355.272 12.8067 356.754 11.8567 358.451 11.198C360.148 10.514 362.01 10.172 364.037 10.172C366.038 10.172 367.888 10.514 369.585 11.198C371.282 11.8567 372.752 12.794 373.993 14.01C375.26 15.226 376.235 16.6573 376.919 18.304C377.628 19.9507 377.983 21.7493 377.983 23.7C377.983 25.6507 377.628 27.4493 376.919 29.096C376.235 30.7427 375.26 32.174 373.993 33.39C372.752 34.606 371.282 35.556 369.585 36.24C367.888 36.8987 366.038 37.228 364.037 37.228ZM364.037 34.72C365.633 34.72 367.102 34.454 368.445 33.922C369.813 33.3647 370.991 32.592 371.979 31.604C372.992 30.5907 373.778 29.4253 374.335 28.108C374.892 26.7653 375.171 25.296 375.171 23.7C375.171 22.104 374.892 20.6473 374.335 19.33C373.778 17.9873 372.992 16.822 371.979 15.834C370.991 14.8207 369.813 14.048 368.445 13.516C367.102 12.9587 365.633 12.68 364.037 12.68C362.441 12.68 360.959 12.9587 359.591 13.516C358.223 14.048 357.032 14.8207 356.019 15.834C355.031 16.822 354.246 17.9873 353.663 19.33C353.106 20.6473 352.827 22.104 352.827 23.7C352.827 25.2707 353.106 26.7273 353.663 28.07C354.246 29.4127 355.031 30.5907 356.019 31.604C357.032 32.592 358.223 33.3647 359.591 33.922C360.959 34.454 362.441 34.72 364.037 34.72ZM361.567 8.234L366.773 3.522H370.383L364.227 8.234H361.567ZM388.086 37V10.4H390.898V34.568H405.794V37H388.086ZM425.371 37.228C423.37 37.228 421.508 36.8987 419.785 36.24C418.088 35.556 416.606 34.606 415.339 33.39C414.098 32.1487 413.123 30.7173 412.413 29.096C411.729 27.4493 411.387 25.6507 411.387 23.7C411.387 21.7493 411.729 19.9633 412.413 18.342C413.123 16.6953 414.098 15.264 415.339 14.048C416.606 12.8067 418.088 11.8567 419.785 11.198C421.483 10.514 423.345 10.172 425.371 10.172C427.373 10.172 429.222 10.514 430.919 11.198C432.617 11.8567 434.086 12.794 435.327 14.01C436.594 15.226 437.569 16.6573 438.253 18.304C438.963 19.9507 439.317 21.7493 439.317 23.7C439.317 25.6507 438.963 27.4493 438.253 29.096C437.569 30.7427 436.594 32.174 435.327 33.39C434.086 34.606 432.617 35.556 430.919 36.24C429.222 36.8987 427.373 37.228 425.371 37.228ZM425.371 34.72C426.967 34.72 428.437 34.454 429.779 33.922C431.147 33.3647 432.325 32.592 433.313 31.604C434.327 30.5907 435.112 29.4253 435.669 28.108C436.227 26.7653 436.505 25.296 436.505 23.7C436.505 22.104 436.227 20.6473 435.669 19.33C435.112 17.9873 434.327 16.822 433.313 15.834C432.325 14.8207 431.147 14.048 429.779 13.516C428.437 12.9587 426.967 12.68 425.371 12.68C423.775 12.68 422.293 12.9587 420.925 13.516C419.557 14.048 418.367 14.8207 417.353 15.834C416.365 16.822 415.58 17.9873 414.997 19.33C414.44 20.6473 414.161 22.104 414.161 23.7C414.161 25.2707 414.44 26.7273 414.997 28.07C415.58 29.4127 416.365 30.5907 417.353 31.604C418.367 32.592 419.557 33.3647 420.925 33.922C422.293 34.454 423.775 34.72 425.371 34.72ZM461.086 37.228C459.06 37.228 457.185 36.8987 455.462 36.24C453.765 35.556 452.283 34.606 451.016 33.39C449.775 32.174 448.8 30.7427 448.09 29.096C447.406 27.4493 447.064 25.6507 447.064 23.7C447.064 21.7493 447.406 19.9507 448.09 18.304C448.8 16.6573 449.788 15.226 451.054 14.01C452.321 12.794 453.803 11.8567 455.5 11.198C457.223 10.514 459.098 10.172 461.124 10.172C463.151 10.172 465 10.4887 466.672 11.122C468.37 11.7553 469.814 12.718 471.004 14.01L469.256 15.796C468.142 14.6813 466.913 13.8833 465.57 13.402C464.228 12.9207 462.784 12.68 461.238 12.68C459.592 12.68 458.072 12.9587 456.678 13.516C455.31 14.048 454.107 14.8207 453.068 15.834C452.055 16.822 451.257 17.9873 450.674 19.33C450.117 20.6473 449.838 22.104 449.838 23.7C449.838 25.2707 450.117 26.7273 450.674 28.07C451.257 29.4127 452.055 30.5907 453.068 31.604C454.107 32.592 455.31 33.3647 456.678 33.922C458.072 34.454 459.579 34.72 461.2 34.72C462.72 34.72 464.152 34.492 465.494 34.036C466.862 33.58 468.116 32.8073 469.256 31.718L470.852 33.846C469.586 34.9607 468.104 35.8093 466.406 36.392C464.709 36.9493 462.936 37.228 461.086 37.228ZM468.154 33.504V23.7H470.852V33.846L468.154 33.504ZM478.355 37L490.515 10.4H493.289L505.449 37H502.485L491.313 12.034H492.453L481.281 37H478.355ZM483.143 29.894L483.979 27.614H499.445L500.281 29.894H483.143Z" fill="white"/>
<path d="M242.54 121L271.52 56.6H283.296L312.368 121H299.856L274.924 62.948H279.708L254.868 121H242.54ZM255.88 106.096L259.1 96.712H293.876L297.096 106.096H255.88ZM347.33 71.32C351.255 71.32 354.751 72.0867 357.818 73.62C360.946 75.1533 363.399 77.5147 365.178 80.704C366.957 83.832 367.846 87.88 367.846 92.848V121H356.346V94.32C356.346 89.9653 355.303 86.7147 353.218 84.568C351.194 82.4213 348.342 81.348 344.662 81.348C341.963 81.348 339.571 81.9 337.486 83.004C335.401 84.108 333.775 85.764 332.61 87.972C331.506 90.1187 330.954 92.848 330.954 96.16V121H319.454V71.872H330.402V85.12L328.47 81.072C330.187 77.944 332.671 75.552 335.922 73.896C339.234 72.1787 343.037 71.32 347.33 71.32ZM412.703 121V111.064L412.059 108.948V91.56C412.059 88.1867 411.047 85.58 409.023 83.74C406.999 81.8387 403.932 80.888 399.823 80.888C397.063 80.888 394.333 81.3173 391.635 82.176C388.997 83.0347 386.759 84.2307 384.919 85.764L380.411 77.392C383.048 75.368 386.176 73.8653 389.795 72.884C393.475 71.8413 397.277 71.32 401.203 71.32C408.317 71.32 413.807 73.0373 417.671 76.472C421.596 79.8453 423.559 85.0893 423.559 92.204V121H412.703ZM397.247 121.644C393.567 121.644 390.347 121.031 387.587 119.804C384.827 118.516 382.68 116.768 381.147 114.56C379.675 112.291 378.939 109.745 378.939 106.924C378.939 104.164 379.583 101.68 380.871 99.472C382.22 97.264 384.397 95.516 387.403 94.228C390.408 92.94 394.395 92.296 399.363 92.296H413.623V99.932H400.191C396.265 99.932 393.628 100.576 392.279 101.864C390.929 103.091 390.255 104.624 390.255 106.464C390.255 108.549 391.083 110.205 392.739 111.432C394.395 112.659 396.695 113.272 399.639 113.272C402.46 113.272 404.975 112.628 407.183 111.34C409.452 110.052 411.077 108.151 412.059 105.636L413.991 112.536C412.887 115.419 410.893 117.657 408.011 119.252C405.189 120.847 401.601 121.644 397.247 121.644Z" fill="white"/>
<path d="M243.648 199V134.6H273.824C281.552 134.6 287.44 136.133 291.488 139.2C295.536 142.205 297.56 146.253 297.56 151.344C297.56 154.779 296.763 157.723 295.168 160.176C293.573 162.568 291.427 164.439 288.728 165.788C286.091 167.076 283.208 167.72 280.08 167.72L281.736 164.408C285.355 164.408 288.605 165.083 291.488 166.432C294.371 167.72 296.64 169.621 298.296 172.136C300.013 174.651 300.872 177.779 300.872 181.52C300.872 187.04 298.756 191.333 294.524 194.4C290.292 197.467 284.005 199 275.664 199H243.648ZM255.608 189.616H274.928C279.405 189.616 282.84 188.88 285.232 187.408C287.624 185.936 288.82 183.575 288.82 180.324C288.82 177.135 287.624 174.804 285.232 173.332C282.84 171.799 279.405 171.032 274.928 171.032H254.688V161.74H272.536C276.707 161.74 279.896 161.004 282.104 159.532C284.373 158.06 285.508 155.852 285.508 152.908C285.508 149.903 284.373 147.664 282.104 146.192C279.896 144.72 276.707 143.984 272.536 143.984H255.608V189.616ZM334.612 199.644C329.583 199.644 325.106 198.571 321.18 196.424C317.255 194.216 314.158 191.211 311.888 187.408C309.619 183.605 308.484 179.281 308.484 174.436C308.484 169.529 309.619 165.205 311.888 161.464C314.158 157.661 317.255 154.687 321.18 152.54C325.106 150.393 329.583 149.32 334.612 149.32C339.703 149.32 344.211 150.393 348.136 152.54C352.123 154.687 355.22 157.631 357.428 161.372C359.698 165.113 360.832 169.468 360.832 174.436C360.832 179.281 359.698 183.605 357.428 187.408C355.22 191.211 352.123 194.216 348.136 196.424C344.211 198.571 339.703 199.644 334.612 199.644ZM334.612 189.8C337.434 189.8 339.948 189.187 342.156 187.96C344.364 186.733 346.082 184.955 347.308 182.624C348.596 180.293 349.24 177.564 349.24 174.436C349.24 171.247 348.596 168.517 347.308 166.248C346.082 163.917 344.364 162.139 342.156 160.912C339.948 159.685 337.464 159.072 334.704 159.072C331.883 159.072 329.368 159.685 327.16 160.912C325.014 162.139 323.296 163.917 322.008 166.248C320.72 168.517 320.076 171.247 320.076 174.436C320.076 177.564 320.72 180.293 322.008 182.624C323.296 184.955 325.014 186.733 327.16 187.96C329.368 189.187 331.852 189.8 334.612 189.8ZM371.829 199V149.872H382.777V163.396L381.489 159.44C382.961 156.128 385.261 153.613 388.389 151.896C391.578 150.179 395.534 149.32 400.257 149.32V160.268C399.766 160.145 399.306 160.084 398.877 160.084C398.448 160.023 398.018 159.992 397.589 159.992C393.234 159.992 389.769 161.28 387.193 163.856C384.617 166.371 383.329 170.143 383.329 175.172V199H371.829ZM431.828 217.492C427.289 217.492 422.842 216.879 418.488 215.652C414.194 214.487 410.668 212.769 407.908 210.5L413.06 201.852C415.206 203.631 417.905 205.041 421.156 206.084C424.468 207.188 427.81 207.74 431.184 207.74C436.581 207.74 440.537 206.483 443.052 203.968C445.566 201.515 446.824 197.804 446.824 192.836V184.096L447.744 172.964L447.376 161.832V149.872H458.324V191.548C458.324 200.441 456.054 206.973 451.516 211.144C446.977 215.376 440.414 217.492 431.828 217.492ZM430.356 196.792C425.694 196.792 421.462 195.811 417.66 193.848C413.918 191.824 410.944 189.033 408.736 185.476C406.589 181.919 405.516 177.748 405.516 172.964C405.516 168.241 406.589 164.101 408.736 160.544C410.944 156.987 413.918 154.227 417.66 152.264C421.462 150.301 425.694 149.32 430.356 149.32C434.526 149.32 438.268 150.148 441.58 151.804C444.892 153.46 447.529 156.036 449.492 159.532C451.516 163.028 452.528 167.505 452.528 172.964C452.528 178.423 451.516 182.931 449.492 186.488C447.529 189.984 444.892 192.591 441.58 194.308C438.268 195.964 434.526 196.792 430.356 196.792ZM432.104 187.04C434.986 187.04 437.562 186.457 439.832 185.292C442.101 184.065 443.849 182.409 445.076 180.324C446.364 178.177 447.008 175.724 447.008 172.964C447.008 170.204 446.364 167.781 445.076 165.696C443.849 163.549 442.101 161.924 439.832 160.82C437.562 159.655 434.986 159.072 432.104 159.072C429.221 159.072 426.614 159.655 424.284 160.82C422.014 161.924 420.236 163.549 418.948 165.696C417.721 167.781 417.108 170.204 417.108 172.964C417.108 175.724 417.721 178.177 418.948 180.324C420.236 182.409 422.014 184.065 424.284 185.292C426.614 186.457 429.221 187.04 432.104 187.04ZM496.534 199.644C491.076 199.644 486.292 198.571 482.182 196.424C478.134 194.216 474.976 191.211 472.706 187.408C470.498 183.605 469.394 179.281 469.394 174.436C469.394 169.529 470.468 165.205 472.614 161.464C474.822 157.661 477.828 154.687 481.63 152.54C485.494 150.393 489.88 149.32 494.786 149.32C499.57 149.32 503.833 150.363 507.574 152.448C511.316 154.533 514.26 157.477 516.406 161.28C518.553 165.083 519.626 169.56 519.626 174.712C519.626 175.203 519.596 175.755 519.534 176.368C519.534 176.981 519.504 177.564 519.442 178.116H478.502V170.48H513.37L508.862 172.872C508.924 170.051 508.341 167.567 507.114 165.42C505.888 163.273 504.201 161.587 502.054 160.36C499.969 159.133 497.546 158.52 494.786 158.52C491.965 158.52 489.481 159.133 487.334 160.36C485.249 161.587 483.593 163.304 482.366 165.512C481.201 167.659 480.618 170.204 480.618 173.148V174.988C480.618 177.932 481.293 180.539 482.642 182.808C483.992 185.077 485.893 186.825 488.346 188.052C490.8 189.279 493.621 189.892 496.81 189.892C499.57 189.892 502.054 189.463 504.262 188.604C506.47 187.745 508.433 186.396 510.15 184.556L516.314 191.64C514.106 194.216 511.316 196.209 507.942 197.62C504.63 198.969 500.828 199.644 496.534 199.644ZM545.853 199.644C541.744 199.644 537.788 199.123 533.985 198.08C530.244 196.976 527.269 195.657 525.061 194.124L529.477 185.384C531.685 186.795 534.322 187.96 537.389 188.88C540.456 189.8 543.522 190.26 546.589 190.26C550.208 190.26 552.814 189.769 554.409 188.788C556.065 187.807 556.893 186.488 556.893 184.832C556.893 183.483 556.341 182.471 555.237 181.796C554.133 181.06 552.692 180.508 550.913 180.14C549.134 179.772 547.141 179.435 544.933 179.128C542.786 178.821 540.609 178.423 538.401 177.932C536.254 177.38 534.292 176.613 532.513 175.632C530.734 174.589 529.293 173.209 528.189 171.492C527.085 169.775 526.533 167.505 526.533 164.684C526.533 161.556 527.422 158.857 529.201 156.588C530.98 154.257 533.464 152.479 536.653 151.252C539.904 149.964 543.737 149.32 548.153 149.32C551.465 149.32 554.808 149.688 558.181 150.424C561.554 151.16 564.345 152.203 566.553 153.552L562.137 162.292C559.806 160.881 557.445 159.931 555.053 159.44C552.722 158.888 550.392 158.612 548.061 158.612C544.565 158.612 541.958 159.133 540.241 160.176C538.585 161.219 537.757 162.537 537.757 164.132C537.757 165.604 538.309 166.708 539.413 167.444C540.517 168.18 541.958 168.763 543.737 169.192C545.516 169.621 547.478 169.989 549.625 170.296C551.833 170.541 554.01 170.94 556.157 171.492C558.304 172.044 560.266 172.811 562.045 173.792C563.885 174.712 565.357 176.031 566.461 177.748C567.565 179.465 568.117 181.704 568.117 184.464C568.117 187.531 567.197 190.199 565.357 192.468C563.578 194.737 561.033 196.516 557.721 197.804C554.409 199.031 550.453 199.644 545.853 199.644Z" fill="white"/>
</svg>
