<svg width="650" height="315" viewBox="0 0 650 315" fill="none" xmlns="http://www.w3.org/2000/svg">
<rect width="650" height="315" rx="20" fill="white"/>
<circle cx="150.557" cy="156.557" r="110.557" fill="#5CC8CB"/>
<path d="M244.582 187.554L261.114 159.657C261.114 219.585 200.153 286.746 116.46 261.948L244.582 187.554Z" fill="#A25BA9"/>
<path d="M148.49 106.961C153.312 110.75 155.103 115.227 156.756 135.892C188.787 142.092 189.82 194.787 222.884 194.787C235.746 194.175 260.081 197.887 261.114 159.657C264.214 125.56 239.416 87.3297 238.383 91.4627C209.452 107.995 202.219 122.46 148.49 106.961Z" fill="#32B2BD"/>
<path d="M105.361 238.804C105.361 192.761 87.4491 115.715 134.259 116.263C151.813 116.812 175.798 139.161 187.5 155.5L170.189 220.618C159.115 229.128 130.925 244.523 105.361 238.804Z" fill="#31B4BE"/>
<path d="M163.989 141.058C163.977 148.291 141.5 180.5 169.5 198.5C177.421 190.305 179.95 147.355 179 146.5C178.05 145.645 164.001 133.826 163.989 141.058Z" fill="#A05DAA"/>
<path d="M159.856 124.526C176.388 154.491 141.258 153.457 172.255 203.053L179 146.5C206.898 160.965 197.053 199.953 242.516 192.721C224.95 269.18 131.992 294.045 68.9641 232.05C90.3177 237.216 136.918 245.829 148.491 230.95C163.369 221.031 165.022 216.485 163.989 215.452L131.959 183.421L148.491 133.826L154.69 118.327L159.856 124.526Z" fill="#CA73B0"/>
<path d="M59.7694 218.818C61.7244 218.818 114.061 250.823 160.825 218.806C130.294 212.333 118.028 192.126 120.115 166.472C121.757 151.57 132.417 141.523 145.168 129.53C151.131 123.921 145.168 112.085 147.255 105.928C154.91 111.059 166.88 125.63 153.518 142.87C139.948 161.341 142.036 162.367 140.992 167.498C139.948 172.629 142.185 211.105 173.5 207C158.5 187.5 154.5 174.415 178 145.5C203 162 198.5 191.5 175.527 207.518C176.591 208.658 204.526 216.465 209.745 194.916C211.093 189.351 207.026 183.228 205.773 174.415C204.52 165.602 218.17 153.194 219.214 154.22C219.214 163.001 208.48 168.533 221.006 184.951C232.75 206.922 207.265 230.221 175.007 218.806C160.393 234.199 111.156 260.202 68.5667 231.47C68.5667 231.47 57.8145 218.818 59.7694 218.818Z" fill="white"/>
<path d="M101.995 136.925C98.3113 123.908 92.7519 118.546 77.1967 112.128C91.6621 110.061 97.8616 103.862 101.995 87.3297C104.061 103.862 110.26 110.061 126.792 112.128C110.26 118.327 106.425 124.053 101.995 136.925Z" fill="white"/>
<path d="M288.332 83V56.4H298.288C300.543 56.4 302.481 56.7673 304.102 57.502C305.723 58.2113 306.965 59.25 307.826 60.618C308.713 61.9607 309.156 63.5947 309.156 65.52C309.156 67.3947 308.713 69.016 307.826 70.384C306.965 71.7267 305.723 72.7653 304.102 73.5C302.481 74.2347 300.543 74.602 298.288 74.602H289.89L291.144 73.272V83H288.332ZM291.144 73.5L289.89 72.132H298.212C300.872 72.132 302.886 71.562 304.254 70.422C305.647 69.2567 306.344 67.6227 306.344 65.52C306.344 63.392 305.647 61.7453 304.254 60.58C302.886 59.4147 300.872 58.832 298.212 58.832H289.89L291.144 57.502V73.5ZM326.741 83.228C324.765 83.228 322.865 82.9113 321.041 82.278C319.243 81.6193 317.849 80.7833 316.861 79.77L317.963 77.604C318.901 78.516 320.155 79.2887 321.725 79.922C323.321 80.53 324.993 80.834 326.741 80.834C328.413 80.834 329.769 80.6313 330.807 80.226C331.871 79.7953 332.644 79.2253 333.125 78.516C333.632 77.8067 333.885 77.0213 333.885 76.16C333.885 75.1213 333.581 74.2853 332.973 73.652C332.391 73.0187 331.618 72.5247 330.655 72.17C329.693 71.79 328.629 71.4607 327.463 71.182C326.298 70.9033 325.133 70.612 323.967 70.308C322.802 69.9787 321.725 69.548 320.737 69.016C319.775 68.484 318.989 67.7873 318.381 66.926C317.799 66.0393 317.507 64.8867 317.507 63.468C317.507 62.1507 317.849 60.9473 318.533 59.858C319.243 58.7433 320.319 57.8567 321.763 57.198C323.207 56.514 325.057 56.172 327.311 56.172C328.806 56.172 330.288 56.3873 331.757 56.818C333.227 57.2233 334.493 57.7933 335.557 58.528L334.607 60.77C333.467 60.01 332.251 59.4527 330.959 59.098C329.693 58.7433 328.464 58.566 327.273 58.566C325.677 58.566 324.36 58.7813 323.321 59.212C322.283 59.6427 321.51 60.2253 321.003 60.96C320.522 61.6693 320.281 62.48 320.281 63.392C320.281 64.4307 320.573 65.2667 321.155 65.9C321.763 66.5333 322.549 67.0273 323.511 67.382C324.499 67.7367 325.576 68.0533 326.741 68.332C327.907 68.6107 329.059 68.9147 330.199 69.244C331.365 69.5733 332.429 70.004 333.391 70.536C334.379 71.0427 335.165 71.7267 335.747 72.588C336.355 73.4493 336.659 74.5767 336.659 75.97C336.659 77.262 336.305 78.4653 335.595 79.58C334.886 80.6693 333.797 81.556 332.327 82.24C330.883 82.8987 329.021 83.228 326.741 83.228ZM346.586 83V56.4H349.398V83H346.586ZM373.405 83.228C371.404 83.228 369.554 82.8987 367.857 82.24C366.16 81.556 364.69 80.606 363.449 79.39C362.208 78.174 361.232 76.7427 360.523 75.096C359.839 73.4493 359.497 71.6507 359.497 69.7C359.497 67.7493 359.839 65.9507 360.523 64.304C361.232 62.6573 362.208 61.226 363.449 60.01C364.716 58.794 366.198 57.8567 367.895 57.198C369.592 56.514 371.442 56.172 373.443 56.172C375.368 56.172 377.18 56.5013 378.877 57.16C380.574 57.7933 382.006 58.756 383.171 60.048L381.385 61.834C380.296 60.7193 379.092 59.9213 377.775 59.44C376.458 58.9333 375.039 58.68 373.519 58.68C371.923 58.68 370.441 58.9587 369.073 59.516C367.705 60.048 366.514 60.8207 365.501 61.834C364.488 62.822 363.69 63.9873 363.107 65.33C362.55 66.6473 362.271 68.104 362.271 69.7C362.271 71.296 362.55 72.7653 363.107 74.108C363.69 75.4253 364.488 76.5907 365.501 77.604C366.514 78.592 367.705 79.3647 369.073 79.922C370.441 80.454 371.923 80.72 373.519 80.72C375.039 80.72 376.458 80.4667 377.775 79.96C379.092 79.4533 380.296 78.6427 381.385 77.528L383.171 79.314C382.006 80.606 380.574 81.5813 378.877 82.24C377.18 82.8987 375.356 83.228 373.405 83.228ZM404.037 83.228C402.036 83.228 400.174 82.8987 398.451 82.24C396.754 81.556 395.272 80.606 394.005 79.39C392.764 78.1487 391.788 76.7173 391.079 75.096C390.395 73.4493 390.053 71.6507 390.053 69.7C390.053 67.7493 390.395 65.9633 391.079 64.342C391.788 62.6953 392.764 61.264 394.005 60.048C395.272 58.8067 396.754 57.8567 398.451 57.198C400.148 56.514 402.01 56.172 404.037 56.172C406.038 56.172 407.888 56.514 409.585 57.198C411.282 57.8567 412.752 58.794 413.993 60.01C415.26 61.226 416.235 62.6573 416.919 64.304C417.628 65.9507 417.983 67.7493 417.983 69.7C417.983 71.6507 417.628 73.4493 416.919 75.096C416.235 76.7427 415.26 78.174 413.993 79.39C412.752 80.606 411.282 81.556 409.585 82.24C407.888 82.8987 406.038 83.228 404.037 83.228ZM404.037 80.72C405.633 80.72 407.102 80.454 408.445 79.922C409.813 79.3647 410.991 78.592 411.979 77.604C412.992 76.5907 413.778 75.4253 414.335 74.108C414.892 72.7653 415.171 71.296 415.171 69.7C415.171 68.104 414.892 66.6473 414.335 65.33C413.778 63.9873 412.992 62.822 411.979 61.834C410.991 60.8207 409.813 60.048 408.445 59.516C407.102 58.9587 405.633 58.68 404.037 58.68C402.441 58.68 400.959 58.9587 399.591 59.516C398.223 60.048 397.032 60.8207 396.019 61.834C395.031 62.822 394.246 63.9873 393.663 65.33C393.106 66.6473 392.827 68.104 392.827 69.7C392.827 71.2707 393.106 72.7273 393.663 74.07C394.246 75.4127 395.031 76.5907 396.019 77.604C397.032 78.592 398.223 79.3647 399.591 79.922C400.959 80.454 402.441 80.72 404.037 80.72ZM401.567 54.234L406.773 49.522H410.383L404.227 54.234H401.567ZM428.086 83V56.4H430.898V80.568H445.794V83H428.086ZM465.371 83.228C463.37 83.228 461.508 82.8987 459.785 82.24C458.088 81.556 456.606 80.606 455.339 79.39C454.098 78.1487 453.123 76.7173 452.413 75.096C451.729 73.4493 451.387 71.6507 451.387 69.7C451.387 67.7493 451.729 65.9633 452.413 64.342C453.123 62.6953 454.098 61.264 455.339 60.048C456.606 58.8067 458.088 57.8567 459.785 57.198C461.483 56.514 463.345 56.172 465.371 56.172C467.373 56.172 469.222 56.514 470.919 57.198C472.617 57.8567 474.086 58.794 475.327 60.01C476.594 61.226 477.569 62.6573 478.253 64.304C478.963 65.9507 479.317 67.7493 479.317 69.7C479.317 71.6507 478.963 73.4493 478.253 75.096C477.569 76.7427 476.594 78.174 475.327 79.39C474.086 80.606 472.617 81.556 470.919 82.24C469.222 82.8987 467.373 83.228 465.371 83.228ZM465.371 80.72C466.967 80.72 468.437 80.454 469.779 79.922C471.147 79.3647 472.325 78.592 473.313 77.604C474.327 76.5907 475.112 75.4253 475.669 74.108C476.227 72.7653 476.505 71.296 476.505 69.7C476.505 68.104 476.227 66.6473 475.669 65.33C475.112 63.9873 474.327 62.822 473.313 61.834C472.325 60.8207 471.147 60.048 469.779 59.516C468.437 58.9587 466.967 58.68 465.371 58.68C463.775 58.68 462.293 58.9587 460.925 59.516C459.557 60.048 458.367 60.8207 457.353 61.834C456.365 62.822 455.58 63.9873 454.997 65.33C454.44 66.6473 454.161 68.104 454.161 69.7C454.161 71.2707 454.44 72.7273 454.997 74.07C455.58 75.4127 456.365 76.5907 457.353 77.604C458.367 78.592 459.557 79.3647 460.925 79.922C462.293 80.454 463.775 80.72 465.371 80.72ZM501.086 83.228C499.06 83.228 497.185 82.8987 495.462 82.24C493.765 81.556 492.283 80.606 491.016 79.39C489.775 78.174 488.8 76.7427 488.09 75.096C487.406 73.4493 487.064 71.6507 487.064 69.7C487.064 67.7493 487.406 65.9507 488.09 64.304C488.8 62.6573 489.788 61.226 491.054 60.01C492.321 58.794 493.803 57.8567 495.5 57.198C497.223 56.514 499.098 56.172 501.124 56.172C503.151 56.172 505 56.4887 506.672 57.122C508.37 57.7553 509.814 58.718 511.004 60.01L509.256 61.796C508.142 60.6813 506.913 59.8833 505.57 59.402C504.228 58.9207 502.784 58.68 501.238 58.68C499.592 58.68 498.072 58.9587 496.678 59.516C495.31 60.048 494.107 60.8207 493.068 61.834C492.055 62.822 491.257 63.9873 490.674 65.33C490.117 66.6473 489.838 68.104 489.838 69.7C489.838 71.2707 490.117 72.7273 490.674 74.07C491.257 75.4127 492.055 76.5907 493.068 77.604C494.107 78.592 495.31 79.3647 496.678 79.922C498.072 80.454 499.579 80.72 501.2 80.72C502.72 80.72 504.152 80.492 505.494 80.036C506.862 79.58 508.116 78.8073 509.256 77.718L510.852 79.846C509.586 80.9607 508.104 81.8093 506.406 82.392C504.709 82.9493 502.936 83.228 501.086 83.228ZM508.154 79.504V69.7H510.852V79.846L508.154 79.504ZM518.355 83L530.515 56.4H533.289L545.449 83H542.485L531.313 58.034H532.453L521.281 83H518.355ZM523.143 75.894L523.979 73.614H539.445L540.281 75.894H523.143Z" fill="black"/>
<path d="M282.54 167L311.52 102.6H323.296L352.368 167H339.856L314.924 108.948H319.708L294.868 167H282.54ZM295.88 152.096L299.1 142.712H333.876L337.096 152.096H295.88ZM387.33 117.32C391.255 117.32 394.751 118.087 397.818 119.62C400.946 121.153 403.399 123.515 405.178 126.704C406.957 129.832 407.846 133.88 407.846 138.848V167H396.346V140.32C396.346 135.965 395.303 132.715 393.218 130.568C391.194 128.421 388.342 127.348 384.662 127.348C381.963 127.348 379.571 127.9 377.486 129.004C375.401 130.108 373.775 131.764 372.61 133.972C371.506 136.119 370.954 138.848 370.954 142.16V167H359.454V117.872H370.402V131.12L368.47 127.072C370.187 123.944 372.671 121.552 375.922 119.896C379.234 118.179 383.037 117.32 387.33 117.32ZM452.703 167V157.064L452.059 154.948V137.56C452.059 134.187 451.047 131.58 449.023 129.74C446.999 127.839 443.932 126.888 439.823 126.888C437.063 126.888 434.333 127.317 431.635 128.176C428.997 129.035 426.759 130.231 424.919 131.764L420.411 123.392C423.048 121.368 426.176 119.865 429.795 118.884C433.475 117.841 437.277 117.32 441.203 117.32C448.317 117.32 453.807 119.037 457.671 122.472C461.596 125.845 463.559 131.089 463.559 138.204V167H452.703ZM437.247 167.644C433.567 167.644 430.347 167.031 427.587 165.804C424.827 164.516 422.68 162.768 421.147 160.56C419.675 158.291 418.939 155.745 418.939 152.924C418.939 150.164 419.583 147.68 420.871 145.472C422.22 143.264 424.397 141.516 427.403 140.228C430.408 138.94 434.395 138.296 439.363 138.296H453.623V145.932H440.191C436.265 145.932 433.628 146.576 432.279 147.864C430.929 149.091 430.255 150.624 430.255 152.464C430.255 154.549 431.083 156.205 432.739 157.432C434.395 158.659 436.695 159.272 439.639 159.272C442.46 159.272 444.975 158.628 447.183 157.34C449.452 156.052 451.077 154.151 452.059 151.636L453.991 158.536C452.887 161.419 450.893 163.657 448.011 165.252C445.189 166.847 441.601 167.644 437.247 167.644Z" fill="black"/>
<path d="M283.648 245V180.6H313.824C321.552 180.6 327.44 182.133 331.488 185.2C335.536 188.205 337.56 192.253 337.56 197.344C337.56 200.779 336.763 203.723 335.168 206.176C333.573 208.568 331.427 210.439 328.728 211.788C326.091 213.076 323.208 213.72 320.08 213.72L321.736 210.408C325.355 210.408 328.605 211.083 331.488 212.432C334.371 213.72 336.64 215.621 338.296 218.136C340.013 220.651 340.872 223.779 340.872 227.52C340.872 233.04 338.756 237.333 334.524 240.4C330.292 243.467 324.005 245 315.664 245H283.648ZM295.608 235.616H314.928C319.405 235.616 322.84 234.88 325.232 233.408C327.624 231.936 328.82 229.575 328.82 226.324C328.82 223.135 327.624 220.804 325.232 219.332C322.84 217.799 319.405 217.032 314.928 217.032H294.688V207.74H312.536C316.707 207.74 319.896 207.004 322.104 205.532C324.373 204.06 325.508 201.852 325.508 198.908C325.508 195.903 324.373 193.664 322.104 192.192C319.896 190.72 316.707 189.984 312.536 189.984H295.608V235.616ZM374.612 245.644C369.583 245.644 365.106 244.571 361.18 242.424C357.255 240.216 354.158 237.211 351.888 233.408C349.619 229.605 348.484 225.281 348.484 220.436C348.484 215.529 349.619 211.205 351.888 207.464C354.158 203.661 357.255 200.687 361.18 198.54C365.106 196.393 369.583 195.32 374.612 195.32C379.703 195.32 384.211 196.393 388.136 198.54C392.123 200.687 395.22 203.631 397.428 207.372C399.698 211.113 400.832 215.468 400.832 220.436C400.832 225.281 399.698 229.605 397.428 233.408C395.22 237.211 392.123 240.216 388.136 242.424C384.211 244.571 379.703 245.644 374.612 245.644ZM374.612 235.8C377.434 235.8 379.948 235.187 382.156 233.96C384.364 232.733 386.082 230.955 387.308 228.624C388.596 226.293 389.24 223.564 389.24 220.436C389.24 217.247 388.596 214.517 387.308 212.248C386.082 209.917 384.364 208.139 382.156 206.912C379.948 205.685 377.464 205.072 374.704 205.072C371.883 205.072 369.368 205.685 367.16 206.912C365.014 208.139 363.296 209.917 362.008 212.248C360.72 214.517 360.076 217.247 360.076 220.436C360.076 223.564 360.72 226.293 362.008 228.624C363.296 230.955 365.014 232.733 367.16 233.96C369.368 235.187 371.852 235.8 374.612 235.8ZM411.829 245V195.872H422.777V209.396L421.489 205.44C422.961 202.128 425.261 199.613 428.389 197.896C431.578 196.179 435.534 195.32 440.257 195.32V206.268C439.766 206.145 439.306 206.084 438.877 206.084C438.448 206.023 438.018 205.992 437.589 205.992C433.234 205.992 429.769 207.28 427.193 209.856C424.617 212.371 423.329 216.143 423.329 221.172V245H411.829ZM471.828 263.492C467.289 263.492 462.842 262.879 458.488 261.652C454.194 260.487 450.668 258.769 447.908 256.5L453.06 247.852C455.206 249.631 457.905 251.041 461.156 252.084C464.468 253.188 467.81 253.74 471.184 253.74C476.581 253.74 480.537 252.483 483.052 249.968C485.566 247.515 486.824 243.804 486.824 238.836V230.096L487.744 218.964L487.376 207.832V195.872H498.324V237.548C498.324 246.441 496.054 252.973 491.516 257.144C486.977 261.376 480.414 263.492 471.828 263.492ZM470.356 242.792C465.694 242.792 461.462 241.811 457.66 239.848C453.918 237.824 450.944 235.033 448.736 231.476C446.589 227.919 445.516 223.748 445.516 218.964C445.516 214.241 446.589 210.101 448.736 206.544C450.944 202.987 453.918 200.227 457.66 198.264C461.462 196.301 465.694 195.32 470.356 195.32C474.526 195.32 478.268 196.148 481.58 197.804C484.892 199.46 487.529 202.036 489.492 205.532C491.516 209.028 492.528 213.505 492.528 218.964C492.528 224.423 491.516 228.931 489.492 232.488C487.529 235.984 484.892 238.591 481.58 240.308C478.268 241.964 474.526 242.792 470.356 242.792ZM472.104 233.04C474.986 233.04 477.562 232.457 479.832 231.292C482.101 230.065 483.849 228.409 485.076 226.324C486.364 224.177 487.008 221.724 487.008 218.964C487.008 216.204 486.364 213.781 485.076 211.696C483.849 209.549 482.101 207.924 479.832 206.82C477.562 205.655 474.986 205.072 472.104 205.072C469.221 205.072 466.614 205.655 464.284 206.82C462.014 207.924 460.236 209.549 458.948 211.696C457.721 213.781 457.108 216.204 457.108 218.964C457.108 221.724 457.721 224.177 458.948 226.324C460.236 228.409 462.014 230.065 464.284 231.292C466.614 232.457 469.221 233.04 472.104 233.04ZM536.534 245.644C531.076 245.644 526.292 244.571 522.182 242.424C518.134 240.216 514.976 237.211 512.706 233.408C510.498 229.605 509.394 225.281 509.394 220.436C509.394 215.529 510.468 211.205 512.614 207.464C514.822 203.661 517.828 200.687 521.63 198.54C525.494 196.393 529.88 195.32 534.786 195.32C539.57 195.32 543.833 196.363 547.574 198.448C551.316 200.533 554.26 203.477 556.406 207.28C558.553 211.083 559.626 215.56 559.626 220.712C559.626 221.203 559.596 221.755 559.534 222.368C559.534 222.981 559.504 223.564 559.442 224.116H518.502V216.48H553.37L548.862 218.872C548.924 216.051 548.341 213.567 547.114 211.42C545.888 209.273 544.201 207.587 542.054 206.36C539.969 205.133 537.546 204.52 534.786 204.52C531.965 204.52 529.481 205.133 527.334 206.36C525.249 207.587 523.593 209.304 522.366 211.512C521.201 213.659 520.618 216.204 520.618 219.148V220.988C520.618 223.932 521.293 226.539 522.642 228.808C523.992 231.077 525.893 232.825 528.346 234.052C530.8 235.279 533.621 235.892 536.81 235.892C539.57 235.892 542.054 235.463 544.262 234.604C546.47 233.745 548.433 232.396 550.15 230.556L556.314 237.64C554.106 240.216 551.316 242.209 547.942 243.62C544.63 244.969 540.828 245.644 536.534 245.644ZM585.853 245.644C581.744 245.644 577.788 245.123 573.985 244.08C570.244 242.976 567.269 241.657 565.061 240.124L569.477 231.384C571.685 232.795 574.322 233.96 577.389 234.88C580.456 235.8 583.522 236.26 586.589 236.26C590.208 236.26 592.814 235.769 594.409 234.788C596.065 233.807 596.893 232.488 596.893 230.832C596.893 229.483 596.341 228.471 595.237 227.796C594.133 227.06 592.692 226.508 590.913 226.14C589.134 225.772 587.141 225.435 584.933 225.128C582.786 224.821 580.609 224.423 578.401 223.932C576.254 223.38 574.292 222.613 572.513 221.632C570.734 220.589 569.293 219.209 568.189 217.492C567.085 215.775 566.533 213.505 566.533 210.684C566.533 207.556 567.422 204.857 569.201 202.588C570.98 200.257 573.464 198.479 576.653 197.252C579.904 195.964 583.737 195.32 588.153 195.32C591.465 195.32 594.808 195.688 598.181 196.424C601.554 197.16 604.345 198.203 606.553 199.552L602.137 208.292C599.806 206.881 597.445 205.931 595.053 205.44C592.722 204.888 590.392 204.612 588.061 204.612C584.565 204.612 581.958 205.133 580.241 206.176C578.585 207.219 577.757 208.537 577.757 210.132C577.757 211.604 578.309 212.708 579.413 213.444C580.517 214.18 581.958 214.763 583.737 215.192C585.516 215.621 587.478 215.989 589.625 216.296C591.833 216.541 594.01 216.94 596.157 217.492C598.304 218.044 600.266 218.811 602.045 219.792C603.885 220.712 605.357 222.031 606.461 223.748C607.565 225.465 608.117 227.704 608.117 230.464C608.117 233.531 607.197 236.199 605.357 238.468C603.578 240.737 601.033 242.516 597.721 243.804C594.409 245.031 590.453 245.644 585.853 245.644Z" fill="black"/>
</svg>
